<mxfile host="app.diagrams.net" agent="Mozilla/5.0 (Windows NT 10.0; Win64; x64; rv:136.0) Gecko/20100101 Firefox/136.0" version="26.1.1">
  <diagram name="Página-1" id="HZ70Y9n9aT6gi59wIT3N">
    <mxGraphModel dx="450" dy="755" grid="1" gridSize="10" guides="1" tooltips="1" connect="1" arrows="1" fold="1" page="1" pageScale="1" pageWidth="827" pageHeight="1169" math="0" shadow="0">
      <root>
        <mxCell id="0" />
        <mxCell id="1" parent="0" />
        <mxCell id="qxhO2JXS2i3P5hvh13s_-4" style="rounded=1;orthogonalLoop=1;jettySize=auto;html=1;exitX=0.25;exitY=0;exitDx=0;exitDy=0;entryX=0.5;entryY=1;entryDx=0;entryDy=0;endArrow=none;startFill=0;labelBackgroundColor=none;fontColor=default;" parent="1" source="qxhO2JXS2i3P5hvh13s_-2" target="qxhO2JXS2i3P5hvh13s_-3" edge="1">
          <mxGeometry relative="1" as="geometry" />
        </mxCell>
        <mxCell id="qxhO2JXS2i3P5hvh13s_-6" style="rounded=1;orthogonalLoop=1;jettySize=auto;html=1;exitX=0.5;exitY=0;exitDx=0;exitDy=0;entryX=0.5;entryY=1;entryDx=0;entryDy=0;endArrow=none;startFill=0;labelBackgroundColor=none;fontColor=default;" parent="1" source="qxhO2JXS2i3P5hvh13s_-2" target="qxhO2JXS2i3P5hvh13s_-5" edge="1">
          <mxGeometry relative="1" as="geometry" />
        </mxCell>
        <mxCell id="R5qe9_XCG0vbkB6ml_Vu-56" style="edgeStyle=orthogonalEdgeStyle;rounded=1;orthogonalLoop=1;jettySize=auto;html=1;exitX=0.5;exitY=1;exitDx=0;exitDy=0;entryX=0.5;entryY=0;entryDx=0;entryDy=0;endArrow=none;startFill=0;" edge="1" parent="1" source="qxhO2JXS2i3P5hvh13s_-2" target="R5qe9_XCG0vbkB6ml_Vu-45">
          <mxGeometry relative="1" as="geometry" />
        </mxCell>
        <mxCell id="qxhO2JXS2i3P5hvh13s_-2" value="Presente" style="html=1;dashed=0;whiteSpace=wrap;rounded=1;labelBackgroundColor=none;" parent="1" vertex="1">
          <mxGeometry x="554" y="280" width="100" height="50" as="geometry" />
        </mxCell>
        <mxCell id="qxhO2JXS2i3P5hvh13s_-3" value="&lt;u&gt;id&lt;/u&gt;" style="ellipse;whiteSpace=wrap;html=1;align=center;rounded=1;labelBackgroundColor=none;" parent="1" vertex="1">
          <mxGeometry x="504" y="210" width="50" height="40" as="geometry" />
        </mxCell>
        <mxCell id="qxhO2JXS2i3P5hvh13s_-5" value="Nome" style="ellipse;whiteSpace=wrap;html=1;align=center;rounded=1;labelBackgroundColor=none;" parent="1" vertex="1">
          <mxGeometry x="574" y="200" width="60" height="40" as="geometry" />
        </mxCell>
        <mxCell id="qxhO2JXS2i3P5hvh13s_-8" value="Preço" style="ellipse;whiteSpace=wrap;html=1;align=center;rounded=1;labelBackgroundColor=none;" parent="1" vertex="1">
          <mxGeometry x="714" y="260" width="60" height="40" as="geometry" />
        </mxCell>
        <mxCell id="qxhO2JXS2i3P5hvh13s_-9" style="rounded=1;orthogonalLoop=1;jettySize=auto;html=1;exitX=1;exitY=0.5;exitDx=0;exitDy=0;entryX=0;entryY=0.5;entryDx=0;entryDy=0;endArrow=none;startFill=0;labelBackgroundColor=none;fontColor=default;" parent="1" source="qxhO2JXS2i3P5hvh13s_-2" target="qxhO2JXS2i3P5hvh13s_-8" edge="1">
          <mxGeometry relative="1" as="geometry" />
        </mxCell>
        <mxCell id="qxhO2JXS2i3P5hvh13s_-19" style="rounded=1;orthogonalLoop=1;jettySize=auto;html=1;entryX=0;entryY=0.5;entryDx=0;entryDy=0;endArrow=none;startFill=0;labelBackgroundColor=none;fontColor=default;" parent="1" source="qxhO2JXS2i3P5hvh13s_-15" target="qxhO2JXS2i3P5hvh13s_-2" edge="1">
          <mxGeometry relative="1" as="geometry" />
        </mxCell>
        <mxCell id="qxhO2JXS2i3P5hvh13s_-15" value="Recebe" style="shape=rhombus;html=1;dashed=0;whiteSpace=wrap;perimeter=rhombusPerimeter;rounded=1;labelBackgroundColor=none;" parent="1" vertex="1">
          <mxGeometry x="344" y="280" width="90" height="50" as="geometry" />
        </mxCell>
        <mxCell id="qxhO2JXS2i3P5hvh13s_-17" style="edgeStyle=orthogonalEdgeStyle;rounded=1;orthogonalLoop=1;jettySize=auto;html=1;entryX=0;entryY=0.5;entryDx=0;entryDy=0;endArrow=none;startFill=0;labelBackgroundColor=none;fontColor=default;" parent="1" source="qxhO2JXS2i3P5hvh13s_-16" target="qxhO2JXS2i3P5hvh13s_-15" edge="1">
          <mxGeometry relative="1" as="geometry" />
        </mxCell>
        <mxCell id="qxhO2JXS2i3P5hvh13s_-23" style="rounded=1;orthogonalLoop=1;jettySize=auto;html=1;exitX=0.75;exitY=0;exitDx=0;exitDy=0;entryX=0.5;entryY=1;entryDx=0;entryDy=0;endArrow=none;startFill=0;labelBackgroundColor=none;fontColor=default;" parent="1" source="qxhO2JXS2i3P5hvh13s_-16" target="qxhO2JXS2i3P5hvh13s_-22" edge="1">
          <mxGeometry relative="1" as="geometry" />
        </mxCell>
        <mxCell id="qxhO2JXS2i3P5hvh13s_-24" style="rounded=1;orthogonalLoop=1;jettySize=auto;html=1;exitX=0.5;exitY=0;exitDx=0;exitDy=0;endArrow=none;startFill=0;entryX=0.5;entryY=1;entryDx=0;entryDy=0;labelBackgroundColor=none;fontColor=default;" parent="1" source="qxhO2JXS2i3P5hvh13s_-16" target="qxhO2JXS2i3P5hvh13s_-25" edge="1">
          <mxGeometry relative="1" as="geometry">
            <mxPoint x="194" y="240" as="targetPoint" />
          </mxGeometry>
        </mxCell>
        <mxCell id="R5qe9_XCG0vbkB6ml_Vu-16" style="edgeStyle=orthogonalEdgeStyle;rounded=1;orthogonalLoop=1;jettySize=auto;html=1;exitX=0.5;exitY=1;exitDx=0;exitDy=0;entryX=0.5;entryY=0;entryDx=0;entryDy=0;endArrow=none;startFill=0;labelBackgroundColor=none;fontColor=default;" edge="1" parent="1" source="qxhO2JXS2i3P5hvh13s_-16" target="R5qe9_XCG0vbkB6ml_Vu-15">
          <mxGeometry relative="1" as="geometry" />
        </mxCell>
        <mxCell id="R5qe9_XCG0vbkB6ml_Vu-24" style="rounded=1;orthogonalLoop=1;jettySize=auto;html=1;exitX=0.25;exitY=0;exitDx=0;exitDy=0;entryX=0.5;entryY=1;entryDx=0;entryDy=0;endArrow=none;startFill=0;labelBackgroundColor=none;fontColor=default;" edge="1" parent="1" source="qxhO2JXS2i3P5hvh13s_-16" target="R5qe9_XCG0vbkB6ml_Vu-22">
          <mxGeometry relative="1" as="geometry" />
        </mxCell>
        <mxCell id="qxhO2JXS2i3P5hvh13s_-16" value="Pessoa" style="html=1;dashed=0;whiteSpace=wrap;rounded=1;labelBackgroundColor=none;" parent="1" vertex="1">
          <mxGeometry x="144" y="280" width="100" height="50" as="geometry" />
        </mxCell>
        <mxCell id="qxhO2JXS2i3P5hvh13s_-20" value="N" style="text;html=1;align=center;verticalAlign=middle;resizable=0;points=[];autosize=1;strokeColor=none;fillColor=none;rounded=1;labelBackgroundColor=none;" parent="1" vertex="1">
          <mxGeometry x="244" y="280" width="30" height="30" as="geometry" />
        </mxCell>
        <mxCell id="qxhO2JXS2i3P5hvh13s_-21" value="N" style="text;html=1;align=center;verticalAlign=middle;resizable=0;points=[];autosize=1;strokeColor=none;fillColor=none;rounded=1;labelBackgroundColor=none;" parent="1" vertex="1">
          <mxGeometry x="524" y="280" width="30" height="30" as="geometry" />
        </mxCell>
        <mxCell id="qxhO2JXS2i3P5hvh13s_-22" value="&lt;u&gt;id&lt;/u&gt;" style="ellipse;whiteSpace=wrap;html=1;align=center;rounded=1;labelBackgroundColor=none;" parent="1" vertex="1">
          <mxGeometry x="294" y="200" width="50" height="40" as="geometry" />
        </mxCell>
        <mxCell id="qxhO2JXS2i3P5hvh13s_-25" value="Nome" style="ellipse;whiteSpace=wrap;html=1;align=center;rounded=1;labelBackgroundColor=none;" parent="1" vertex="1">
          <mxGeometry x="197" y="185" width="60" height="40" as="geometry" />
        </mxCell>
        <mxCell id="R5qe9_XCG0vbkB6ml_Vu-2" style="rounded=1;orthogonalLoop=1;jettySize=auto;html=1;exitX=0.5;exitY=0;exitDx=0;exitDy=0;entryX=0;entryY=0.75;entryDx=0;entryDy=0;endArrow=none;startFill=0;labelBackgroundColor=none;fontColor=default;" edge="1" parent="1" source="R5qe9_XCG0vbkB6ml_Vu-1" target="qxhO2JXS2i3P5hvh13s_-16">
          <mxGeometry relative="1" as="geometry" />
        </mxCell>
        <mxCell id="R5qe9_XCG0vbkB6ml_Vu-1" value="telefones" style="ellipse;shape=doubleEllipse;margin=3;whiteSpace=wrap;html=1;align=center;rounded=1;labelBackgroundColor=none;" vertex="1" parent="1">
          <mxGeometry x="54" y="340" width="100" height="40" as="geometry" />
        </mxCell>
        <mxCell id="R5qe9_XCG0vbkB6ml_Vu-3" style="edgeStyle=orthogonalEdgeStyle;rounded=1;orthogonalLoop=1;jettySize=auto;html=1;exitX=0.5;exitY=1;exitDx=0;exitDy=0;labelBackgroundColor=none;fontColor=default;" edge="1" parent="1" source="R5qe9_XCG0vbkB6ml_Vu-1" target="R5qe9_XCG0vbkB6ml_Vu-1">
          <mxGeometry relative="1" as="geometry" />
        </mxCell>
        <mxCell id="R5qe9_XCG0vbkB6ml_Vu-21" style="edgeStyle=orthogonalEdgeStyle;rounded=1;orthogonalLoop=1;jettySize=auto;html=1;exitX=0.5;exitY=0;exitDx=0;exitDy=0;entryX=0.5;entryY=1;entryDx=0;entryDy=0;endArrow=none;startFill=0;labelBackgroundColor=none;fontColor=default;" edge="1" parent="1" source="R5qe9_XCG0vbkB6ml_Vu-5" target="R5qe9_XCG0vbkB6ml_Vu-15">
          <mxGeometry relative="1" as="geometry" />
        </mxCell>
        <mxCell id="R5qe9_XCG0vbkB6ml_Vu-5" value="Classificao Pessoa" style="html=1;dashed=0;whiteSpace=wrap;rounded=1;labelBackgroundColor=none;" vertex="1" parent="1">
          <mxGeometry x="131" y="480" width="126" height="50" as="geometry" />
        </mxCell>
        <mxCell id="R5qe9_XCG0vbkB6ml_Vu-13" style="edgeStyle=orthogonalEdgeStyle;rounded=1;orthogonalLoop=1;jettySize=auto;html=1;exitX=0.5;exitY=0;exitDx=0;exitDy=0;entryX=1;entryY=0.5;entryDx=0;entryDy=0;endArrow=none;startFill=0;labelBackgroundColor=none;fontColor=default;" edge="1" parent="1" source="R5qe9_XCG0vbkB6ml_Vu-7" target="R5qe9_XCG0vbkB6ml_Vu-5">
          <mxGeometry relative="1" as="geometry" />
        </mxCell>
        <mxCell id="R5qe9_XCG0vbkB6ml_Vu-7" value="&lt;u&gt;id&lt;/u&gt;" style="ellipse;whiteSpace=wrap;html=1;align=center;rounded=1;labelBackgroundColor=none;" vertex="1" parent="1">
          <mxGeometry x="274" y="550" width="50" height="40" as="geometry" />
        </mxCell>
        <mxCell id="R5qe9_XCG0vbkB6ml_Vu-11" style="edgeStyle=orthogonalEdgeStyle;rounded=1;orthogonalLoop=1;jettySize=auto;html=1;exitX=0.5;exitY=0;exitDx=0;exitDy=0;entryX=0;entryY=0.5;entryDx=0;entryDy=0;endArrow=none;startFill=0;labelBackgroundColor=none;fontColor=default;" edge="1" parent="1" source="R5qe9_XCG0vbkB6ml_Vu-9" target="R5qe9_XCG0vbkB6ml_Vu-5">
          <mxGeometry relative="1" as="geometry" />
        </mxCell>
        <mxCell id="R5qe9_XCG0vbkB6ml_Vu-9" value="&lt;div&gt;Tipo&lt;/div&gt;" style="ellipse;whiteSpace=wrap;html=1;align=center;rounded=1;labelBackgroundColor=none;" vertex="1" parent="1">
          <mxGeometry x="54" y="550" width="60" height="40" as="geometry" />
        </mxCell>
        <mxCell id="R5qe9_XCG0vbkB6ml_Vu-12" style="edgeStyle=orthogonalEdgeStyle;rounded=1;orthogonalLoop=1;jettySize=auto;html=1;exitX=0.5;exitY=0;exitDx=0;exitDy=0;entryX=0.5;entryY=1;entryDx=0;entryDy=0;endArrow=none;startFill=0;labelBackgroundColor=none;fontColor=default;" edge="1" parent="1" source="R5qe9_XCG0vbkB6ml_Vu-10" target="R5qe9_XCG0vbkB6ml_Vu-5">
          <mxGeometry relative="1" as="geometry" />
        </mxCell>
        <mxCell id="R5qe9_XCG0vbkB6ml_Vu-10" value="Valor Maximo" style="ellipse;whiteSpace=wrap;html=1;align=center;rounded=1;labelBackgroundColor=none;" vertex="1" parent="1">
          <mxGeometry x="147" y="565" width="94" height="60" as="geometry" />
        </mxCell>
        <mxCell id="R5qe9_XCG0vbkB6ml_Vu-17" style="edgeStyle=orthogonalEdgeStyle;rounded=1;orthogonalLoop=1;jettySize=auto;html=1;exitX=0.5;exitY=1;exitDx=0;exitDy=0;entryX=0.5;entryY=0;entryDx=0;entryDy=0;endArrow=none;startFill=0;labelBackgroundColor=none;fontColor=default;" edge="1" parent="1" target="R5qe9_XCG0vbkB6ml_Vu-5">
          <mxGeometry relative="1" as="geometry">
            <mxPoint x="194" y="450" as="sourcePoint" />
          </mxGeometry>
        </mxCell>
        <mxCell id="R5qe9_XCG0vbkB6ml_Vu-15" value="Possui" style="shape=rhombus;html=1;dashed=0;whiteSpace=wrap;perimeter=rhombusPerimeter;rounded=1;labelBackgroundColor=none;" vertex="1" parent="1">
          <mxGeometry x="149" y="380" width="90" height="50" as="geometry" />
        </mxCell>
        <mxCell id="R5qe9_XCG0vbkB6ml_Vu-19" value="N" style="text;html=1;align=center;verticalAlign=middle;resizable=0;points=[];autosize=1;strokeColor=none;fillColor=none;rounded=1;labelBackgroundColor=none;" vertex="1" parent="1">
          <mxGeometry x="195" y="330" width="30" height="30" as="geometry" />
        </mxCell>
        <mxCell id="R5qe9_XCG0vbkB6ml_Vu-20" value="1" style="text;html=1;align=center;verticalAlign=middle;resizable=0;points=[];autosize=1;strokeColor=none;fillColor=none;rounded=1;labelBackgroundColor=none;" vertex="1" parent="1">
          <mxGeometry x="195" y="450" width="30" height="30" as="geometry" />
        </mxCell>
        <mxCell id="R5qe9_XCG0vbkB6ml_Vu-31" style="rounded=1;hachureGap=4;orthogonalLoop=1;jettySize=auto;html=1;exitX=0;exitY=0.5;exitDx=0;exitDy=0;entryX=0.5;entryY=1;entryDx=0;entryDy=0;fontFamily=Architects Daughter;fontSource=https%3A%2F%2Ffonts.googleapis.com%2Fcss%3Ffamily%3DArchitects%2BDaughter;fontColor=default;endArrow=none;startFill=0;labelBackgroundColor=none;" edge="1" parent="1" source="R5qe9_XCG0vbkB6ml_Vu-22" target="R5qe9_XCG0vbkB6ml_Vu-29">
          <mxGeometry relative="1" as="geometry" />
        </mxCell>
        <mxCell id="R5qe9_XCG0vbkB6ml_Vu-32" style="rounded=1;hachureGap=4;orthogonalLoop=1;jettySize=auto;html=1;exitX=0.5;exitY=0;exitDx=0;exitDy=0;entryX=0.5;entryY=1;entryDx=0;entryDy=0;fontFamily=Architects Daughter;fontSource=https%3A%2F%2Ffonts.googleapis.com%2Fcss%3Ffamily%3DArchitects%2BDaughter;fontColor=default;endArrow=none;startFill=0;labelBackgroundColor=none;" edge="1" parent="1" source="R5qe9_XCG0vbkB6ml_Vu-22" target="R5qe9_XCG0vbkB6ml_Vu-25">
          <mxGeometry relative="1" as="geometry" />
        </mxCell>
        <mxCell id="R5qe9_XCG0vbkB6ml_Vu-35" style="rounded=1;hachureGap=4;orthogonalLoop=1;jettySize=auto;html=1;exitX=0.5;exitY=0;exitDx=0;exitDy=0;entryX=0.5;entryY=1;entryDx=0;entryDy=0;fontFamily=Architects Daughter;fontSource=https%3A%2F%2Ffonts.googleapis.com%2Fcss%3Ffamily%3DArchitects%2BDaughter;fontColor=default;endArrow=none;startFill=0;labelBackgroundColor=none;" edge="1" parent="1" source="R5qe9_XCG0vbkB6ml_Vu-22" target="R5qe9_XCG0vbkB6ml_Vu-30">
          <mxGeometry relative="1" as="geometry" />
        </mxCell>
        <mxCell id="R5qe9_XCG0vbkB6ml_Vu-36" style="edgeStyle=none;rounded=1;hachureGap=4;orthogonalLoop=1;jettySize=auto;html=1;exitX=0.662;exitY=0.08;exitDx=0;exitDy=0;entryX=0.5;entryY=1;entryDx=0;entryDy=0;fontFamily=Architects Daughter;fontSource=https%3A%2F%2Ffonts.googleapis.com%2Fcss%3Ffamily%3DArchitects%2BDaughter;fontColor=default;endArrow=none;startFill=0;labelBackgroundColor=none;exitPerimeter=0;" edge="1" parent="1" source="R5qe9_XCG0vbkB6ml_Vu-22" target="R5qe9_XCG0vbkB6ml_Vu-26">
          <mxGeometry relative="1" as="geometry" />
        </mxCell>
        <mxCell id="R5qe9_XCG0vbkB6ml_Vu-37" style="rounded=1;hachureGap=4;orthogonalLoop=1;jettySize=auto;html=1;exitX=1;exitY=0;exitDx=0;exitDy=0;entryX=0;entryY=1;entryDx=0;entryDy=0;fontFamily=Architects Daughter;fontSource=https%3A%2F%2Ffonts.googleapis.com%2Fcss%3Ffamily%3DArchitects%2BDaughter;endArrow=none;startFill=0;" edge="1" parent="1" source="R5qe9_XCG0vbkB6ml_Vu-22" target="R5qe9_XCG0vbkB6ml_Vu-27">
          <mxGeometry relative="1" as="geometry" />
        </mxCell>
        <mxCell id="R5qe9_XCG0vbkB6ml_Vu-60" style="rounded=0;orthogonalLoop=1;jettySize=auto;html=1;exitX=0.5;exitY=0;exitDx=0;exitDy=0;entryX=0.5;entryY=1;entryDx=0;entryDy=0;endArrow=none;startFill=0;" edge="1" parent="1" source="R5qe9_XCG0vbkB6ml_Vu-22" target="R5qe9_XCG0vbkB6ml_Vu-59">
          <mxGeometry relative="1" as="geometry" />
        </mxCell>
        <mxCell id="R5qe9_XCG0vbkB6ml_Vu-22" value="Endereco" style="ellipse;whiteSpace=wrap;html=1;rounded=1;labelBackgroundColor=none;" vertex="1" parent="1">
          <mxGeometry x="100" y="185" width="74" height="50" as="geometry" />
        </mxCell>
        <mxCell id="R5qe9_XCG0vbkB6ml_Vu-25" value="Logradouro" style="ellipse;whiteSpace=wrap;html=1;rounded=1;labelBackgroundColor=none;" vertex="1" parent="1">
          <mxGeometry x="14" y="80" width="74" height="50" as="geometry" />
        </mxCell>
        <mxCell id="R5qe9_XCG0vbkB6ml_Vu-26" value="&lt;div&gt;CEP&lt;/div&gt;" style="ellipse;whiteSpace=wrap;html=1;rounded=1;labelBackgroundColor=none;" vertex="1" parent="1">
          <mxGeometry x="157" y="60" width="74" height="50" as="geometry" />
        </mxCell>
        <mxCell id="R5qe9_XCG0vbkB6ml_Vu-27" value="Numero" style="ellipse;whiteSpace=wrap;html=1;rounded=1;labelBackgroundColor=none;" vertex="1" parent="1">
          <mxGeometry x="239" y="80" width="74" height="50" as="geometry" />
        </mxCell>
        <mxCell id="R5qe9_XCG0vbkB6ml_Vu-29" value="Complemento" style="ellipse;whiteSpace=wrap;html=1;rounded=1;labelBackgroundColor=none;" vertex="1" parent="1">
          <mxGeometry x="10" y="150" width="78" height="40" as="geometry" />
        </mxCell>
        <mxCell id="R5qe9_XCG0vbkB6ml_Vu-30" value="Bairro" style="ellipse;whiteSpace=wrap;html=1;rounded=1;labelBackgroundColor=none;" vertex="1" parent="1">
          <mxGeometry x="91" y="70" width="58" height="30" as="geometry" />
        </mxCell>
        <mxCell id="R5qe9_XCG0vbkB6ml_Vu-53" style="rounded=1;orthogonalLoop=1;jettySize=auto;html=1;exitX=0.5;exitY=1;exitDx=0;exitDy=0;entryX=0.5;entryY=0;entryDx=0;entryDy=0;endArrow=none;startFill=0;" edge="1" parent="1" source="R5qe9_XCG0vbkB6ml_Vu-43" target="R5qe9_XCG0vbkB6ml_Vu-51">
          <mxGeometry relative="1" as="geometry" />
        </mxCell>
        <mxCell id="R5qe9_XCG0vbkB6ml_Vu-54" style="rounded=1;orthogonalLoop=1;jettySize=auto;html=1;exitX=0.5;exitY=1;exitDx=0;exitDy=0;entryX=0.5;entryY=0;entryDx=0;entryDy=0;endArrow=none;startFill=0;" edge="1" parent="1" source="R5qe9_XCG0vbkB6ml_Vu-43" target="R5qe9_XCG0vbkB6ml_Vu-52">
          <mxGeometry relative="1" as="geometry" />
        </mxCell>
        <mxCell id="R5qe9_XCG0vbkB6ml_Vu-43" value="Tipo Presente" style="shape=ext;margin=3;double=1;whiteSpace=wrap;html=1;align=center;rounded=1;" vertex="1" parent="1">
          <mxGeometry x="554" y="470" width="100" height="40" as="geometry" />
        </mxCell>
        <mxCell id="R5qe9_XCG0vbkB6ml_Vu-48" style="edgeStyle=orthogonalEdgeStyle;rounded=1;orthogonalLoop=1;jettySize=auto;html=1;exitX=0.5;exitY=1;exitDx=0;exitDy=0;entryX=0.5;entryY=0;entryDx=0;entryDy=0;endArrow=none;startFill=0;" edge="1" parent="1" source="R5qe9_XCG0vbkB6ml_Vu-45" target="R5qe9_XCG0vbkB6ml_Vu-43">
          <mxGeometry relative="1" as="geometry" />
        </mxCell>
        <mxCell id="R5qe9_XCG0vbkB6ml_Vu-45" value="Possui" style="shape=rhombus;html=1;dashed=0;whiteSpace=wrap;perimeter=rhombusPerimeter;rounded=1;labelBackgroundColor=none;" vertex="1" parent="1">
          <mxGeometry x="559" y="370" width="90" height="50" as="geometry" />
        </mxCell>
        <mxCell id="R5qe9_XCG0vbkB6ml_Vu-51" value="&lt;u&gt;id&lt;/u&gt;" style="ellipse;whiteSpace=wrap;html=1;align=center;rounded=1;labelBackgroundColor=none;" vertex="1" parent="1">
          <mxGeometry x="530" y="530" width="50" height="40" as="geometry" />
        </mxCell>
        <mxCell id="R5qe9_XCG0vbkB6ml_Vu-52" value="Nome" style="ellipse;whiteSpace=wrap;html=1;align=center;rounded=1;labelBackgroundColor=none;" vertex="1" parent="1">
          <mxGeometry x="620" y="530" width="60" height="40" as="geometry" />
        </mxCell>
        <mxCell id="R5qe9_XCG0vbkB6ml_Vu-57" value="N" style="text;html=1;align=center;verticalAlign=middle;resizable=0;points=[];autosize=1;strokeColor=none;fillColor=none;rounded=1;" vertex="1" parent="1">
          <mxGeometry x="605" y="328" width="30" height="30" as="geometry" />
        </mxCell>
        <mxCell id="R5qe9_XCG0vbkB6ml_Vu-58" value="1" style="text;html=1;align=center;verticalAlign=middle;resizable=0;points=[];autosize=1;strokeColor=none;fillColor=none;rounded=1;" vertex="1" parent="1">
          <mxGeometry x="605" y="440" width="30" height="30" as="geometry" />
        </mxCell>
        <mxCell id="R5qe9_XCG0vbkB6ml_Vu-59" value="UF" style="ellipse;whiteSpace=wrap;html=1;rounded=1;labelBackgroundColor=none;" vertex="1" parent="1">
          <mxGeometry x="140" y="120" width="34" height="20" as="geometry" />
        </mxCell>
      </root>
    </mxGraphModel>
  </diagram>
</mxfile>
